<?xml version="1.0" standalone="no"?><!DOCTYPE svg PUBLIC "-//W3C//DTD SVG 1.1//EN" "http://www.w3.org/Graphics/SVG/1.1/DTD/svg11.dtd"><svg t="1540803360914" class="icon" style="" viewBox="0 0 1024 1024" version="1.1" xmlns="http://www.w3.org/2000/svg" p-id="1946" xmlns:xlink="http://www.w3.org/1999/xlink" width="64" height="64"><defs><style type="text/css"></style></defs><path d="M517.12 506.88m-286.72 0a286.72 286.72 0 1 0 573.44 0 286.72 286.72 0 1 0-573.44 0Z" fill="#FFFFFF" p-id="1947"></path><path d="M508.416 515.584m-295.424 0a295.424 295.424 0 1 0 590.848 0 295.424 295.424 0 1 0-590.848 0Z" fill="#FFFFFF" p-id="1948"></path><path d="M509.44 94.208c-227.84 0-413.696 185.344-413.696 413.696 0 227.84 185.344 413.696 413.696 413.696 227.84 0 413.696-185.344 413.696-413.696-0.512-228.352-185.856-413.696-413.696-413.696z m232.448 296.96l-278.528 281.6h-0.512v0.512c-2.048 2.048-5.12 3.584-7.68 5.12-1.536 0.512-2.56 2.048-3.584 2.56-4.096 1.536-8.704 2.56-12.8 2.56-4.608 0-8.704-1.024-13.312-2.56-1.536-0.512-2.56-1.536-3.584-2.56-2.56-1.536-5.12-2.56-7.68-5.12v-0.512h-0.512L276.48 531.968c-13.312-13.824-13.312-35.84 0.512-49.152 13.824-13.312 35.84-13.312 49.152 0.512l112.64 115.712 253.952-256.512c13.312-13.824 35.328-13.824 49.152-0.512 13.312 13.824 13.312 35.84 0 49.152z" fill="#33B052" p-id="1949"></path></svg>